<svg version="1.1" xmlns="http://www.w3.org/2000/svg" xmlns:xlink="http://www.w3.org/1999/xlink" width="44.28705" height="30.34419" viewBox="0,0,44.28705,30.34419"><g transform="translate(-225.51483,-164.82642)"><g data-paper-data="{&quot;isPaintingLayer&quot;:true}" fill-rule="nonzero" stroke-linecap="butt" stroke-linejoin="miter" stroke-miterlimit="10" stroke-dasharray="" stroke-dashoffset="0" style="mix-blend-mode: normal"><path d="" fill="#7dfa00" stroke="#60bf00" stroke-width="0"/><path d="" fill="#000000" stroke="none" stroke-width="0.5"/><path d="" fill="#000000" stroke="none" stroke-width="0.5"/><path d="" fill="#ffffff" stroke="none" stroke-width="0.5"/><path d="" fill="#ffffff" stroke="none" stroke-width="0.5"/><path d="M244.8314,170.31045c5.36033,0.02872 9.68246,4.3974 9.65374,9.75774c-0.02872,5.36033 -4.3974,9.68246 -9.75774,9.65374c-5.36033,-0.02872 -9.68246,-4.3974 -9.65374,-9.75774c0.02872,-5.36033 4.3974,-9.68246 9.75774,-9.65374z" fill="#6b64ff" stroke="none" stroke-width="0"/><path d="M235.27271,170.25924c5.36033,0.02872 9.68246,4.3974 9.65374,9.75774c-0.02872,5.36033 -4.3974,9.68246 -9.75774,9.65374c-5.36033,-0.02872 -9.68246,-4.3974 -9.65374,-9.75774c0.02872,-5.36033 4.3974,-9.68246 9.75774,-9.65374z" fill="#6b64ff" stroke="none" stroke-width="0"/><path d="M235.29456,170.26992l9.55937,0.05121l-0.10393,19.39991l-9.55937,-0.05121z" fill="#6b64ff" stroke="none" stroke-width="0"/><path d="M239.85805,164.8265c3.08361,0.01652 5.56997,2.52967 5.55345,5.61327c-0.01652,3.08361 -2.52967,5.56997 -5.61327,5.55345c-3.08361,-0.01652 -5.56997,-2.52967 -5.55345,-5.61327c0.01652,-3.08361 2.52967,-5.56997 5.61327,-5.55345z" fill="#6b64ff" stroke="none" stroke-width="0"/><path d="M239.64866,184.00381c3.08361,0.01652 5.56996,2.52967 5.55344,5.61327c-0.01652,3.08361 -2.52966,5.56997 -5.61326,5.55345c-3.08361,-0.01652 -5.56997,-2.52967 -5.55345,-5.61327c0.01652,-3.08361 2.52967,-5.56997 5.61327,-5.55345z" fill="#6b64ff" stroke="none" stroke-width="0"/><path d="M239.84932,166.45759c2.21742,0.01188 4.0053,1.83313 3.99332,4.06787c-0.01197,2.23475 -1.81925,4.03673 -4.03668,4.02485c-2.21742,-0.01188 -4.0053,-1.83313 -3.99332,-4.06787c0.01197,-2.23475 1.81925,-4.03673 4.03668,-4.02485z" fill="#ffffff" stroke="none" stroke-width="0"/><path d="M239.703,185.57252c2.21743,0.01188 4.00529,1.83312 3.99331,4.06787c-0.01197,2.23475 -1.81925,4.03673 -4.03667,4.02485c-2.21743,-0.01188 -4.0053,-1.83312 -3.99332,-4.06787c0.01197,-2.23475 1.81926,-4.03673 4.03668,-4.02485z" fill="#ffffff" stroke="none" stroke-width="0"/><path d="M241.5344,168.09776c1.2473,0.00668 2.25302,1.02323 2.24634,2.27054c-0.00668,1.2473 -1.02323,2.25302 -2.27054,2.24634c-1.2473,-0.00668 -2.25302,-1.02323 -2.24634,-2.27054c0.00668,-1.2473 1.02323,-2.25302 2.27054,-2.24634z" fill="#000000" stroke="none" stroke-width="0"/><path d="M241.45014,187.33848c1.2473,0.00668 2.25302,1.02323 2.24634,2.27054c-0.00668,1.2473 -1.02323,2.25302 -2.27054,2.24634c-1.2473,-0.00668 -2.25302,-1.02323 -2.24634,-2.27054c0.00668,-1.2473 1.02323,-2.25302 2.27054,-2.24634z" fill="#000000" stroke="none" stroke-width="0"/><path d="M267.20289,183.32003c-0.37139,0.92848 -1.29987,0.55709 -1.29987,0.55709l-0.70806,-0.30026c-3.72985,-2.33707 -7.44702,-1.81418 -11.53425,-2.61467c0,0 -0.88101,-0.1762 -0.80585,-1.02965c-0.08098,-0.14867 -0.12651,-0.34137 -0.10382,-0.59091c0.09054,-0.99589 1.08643,-0.90536 1.08643,-0.90536c5.12643,0.46608 9.70185,-0.53271 14.53829,-2.15059l0.42612,-0.05132c0,0 1,0 1,1c0,0.84868 -0.72026,0.9771 -0.93824,0.99654c-2.42402,0.79975 -4.7883,1.44987 -7.18389,1.85614c1.52803,0.322 3.04088,0.8371 4.5752,1.79383l0.39084,0.1393c0,0 0.92848,0.37139 0.55709,1.29987z" fill="#ff0000" stroke="none" stroke-width="0.5"/></g></g></svg>